HIERARCHY
ROOT newVegas:Hips
{
	OFFSET 0.000000 96.479958 0.000000
	CHANNELS 6 Xposition Yposition Zposition Xrotation Yrotation Zrotation
	JOINT newVegas:Pelvis
	{
		OFFSET 0.000000 0.000000 0.000000
		CHANNELS 3 Xrotation Yrotation Zrotation
		JOINT newVegas:LeftUpLeg
		{
			OFFSET 18.735201 -5.666702 -4.541200
			CHANNELS 3 Xrotation Yrotation Zrotation
			JOINT newVegas:LeftLeg
			{
				OFFSET -0.021200 -31.938179 0.493100
				CHANNELS 3 Xrotation Yrotation Zrotation
				JOINT newVegas:LeftFoot
				{
					OFFSET 0.021200 -31.938179 -4.336299
					CHANNELS 3 Xrotation Yrotation Zrotation
					JOINT newVegas:LeftToeBase
					{
						OFFSET 0.943001 -26.722000 15.023500
						CHANNELS 3 Xrotation Yrotation Zrotation
						End Site
						{
							OFFSET 0.000000 30.670183 0.000000
						}
					}
				}
				JOINT newVegas:Left_PantLeg
				{
					OFFSET 0.663870 -9.044666 -1.108900
					CHANNELS 3 Xrotation Yrotation Zrotation
					End Site
					{
						OFFSET 1.415995 20.635357 0.000000
					}
				}
			}
		}
		JOINT newVegas:RightUpLeg
		{
			OFFSET -18.735201 -5.666702 -4.541200
			CHANNELS 3 Xrotation Yrotation Zrotation
			JOINT newVegas:RightLeg
			{
				OFFSET 0.018946 -31.938133 0.493100
				CHANNELS 3 Xrotation Yrotation Zrotation
				JOINT newVegas:RightFoot
				{
					OFFSET -0.018946 -31.938126 -4.336299
					CHANNELS 3 Xrotation Yrotation Zrotation
					JOINT newVegas:RightToeBase
					{
						OFFSET -0.943001 -26.722004 15.023500
						CHANNELS 3 Xrotation Yrotation Zrotation
						End Site
						{
							OFFSET 0.000000 30.670187 0.000000
						}
					}
				}
				JOINT newVegas:Right_PantLeg
				{
					OFFSET -0.661674 -9.044716 -1.108900
					CHANNELS 3 Xrotation Yrotation Zrotation
					End Site
					{
						OFFSET -1.415958 20.635269 0.000000
					}
				}
			}
		}
	}
	JOINT newVegas:Spine
	{
		OFFSET 0.000000 10.199997 -0.299500
		CHANNELS 3 Xrotation Yrotation Zrotation
		JOINT newVegas:Spine1
		{
			OFFSET 0.000000 11.900002 -1.516600
			CHANNELS 3 Xrotation Yrotation Zrotation
			JOINT newVegas:Spine2
			{
				OFFSET 0.000000 13.600006 -2.842500
				CHANNELS 3 Xrotation Yrotation Zrotation
				JOINT newVegas:Neck
				{
					OFFSET 0.000000 9.624100 -2.890100
					CHANNELS 3 Xrotation Yrotation Zrotation
					JOINT newVegas:Head
					{
						OFFSET 0.000000 14.068802 -1.351900
						CHANNELS 3 Xrotation Yrotation Zrotation
						JOINT newVegas:Hair_Back
						{
							OFFSET 0.000000 3.231903 -17.524799
							CHANNELS 3 Xrotation Yrotation Zrotation
							End Site
							{
								OFFSET 0.000000 19.849884 0.000000
							}
						}
						JOINT newVegas:Hair_Front
						{
							OFFSET 0.000000 31.260406 4.573800
							CHANNELS 3 Xrotation Yrotation Zrotation
							JOINT newVegas:Hair_Front1
							{
								OFFSET 0.000000 2.284103 11.993300
								CHANNELS 3 Xrotation Yrotation Zrotation
								JOINT newVegas:Hair_Front2
								{
									OFFSET 0.000000 2.284103 11.993300
									CHANNELS 3 Xrotation Yrotation Zrotation
									End Site
									{
										OFFSET 0.000000 12.208862 0.000000
									}
								}
							}
						}
						JOINT newVegas:Jowel
						{
							OFFSET 0.000000 -7.458206 6.864100
							CHANNELS 3 Xrotation Yrotation Zrotation
							End Site
							{
								OFFSET 0.000000 19.849884 0.000000
							}
						}
					}
				}
				JOINT newVegas:LeftShoulder
				{
					OFFSET 15.263000 10.923401 -0.547700
					CHANNELS 3 Xrotation Yrotation Zrotation
					JOINT newVegas:LeftArm
					{
						OFFSET 25.438599 -2.830597 -13.032500
						CHANNELS 3 Xrotation Yrotation Zrotation
						JOINT newVegas:LeftForeArm
						{
							OFFSET 29.960503 0.000000 0.000000
							CHANNELS 3 Xrotation Yrotation Zrotation
							JOINT newVegas:LeftHand
							{
								OFFSET 27.849251 0.000000 0.000000
								CHANNELS 3 Xrotation Yrotation Zrotation
								JOINT newVegas:LeftHandThumb1
								{
									OFFSET 4.487587 -3.305161 6.305391
									CHANNELS 3 Xrotation Yrotation Zrotation
									JOINT newVegas:LeftHandThumb2
									{
										OFFSET 5.480453 -3.164139 3.164143
										CHANNELS 3 Xrotation Yrotation Zrotation
										JOINT newVegas:LeftHandThumb3
										{
											OFFSET 5.159721 -2.978973 2.978967
											CHANNELS 3 Xrotation Yrotation Zrotation
											End Site
											{
												OFFSET 2.494507 5.926697 1.738678
											}
										}
									}
								}
								JOINT newVegas:LeftHandIndex1
								{
									OFFSET 18.578728 -0.527832 5.208049
									CHANNELS 3 Xrotation Yrotation Zrotation
									JOINT newVegas:LeftHandIndex2
									{
										OFFSET 3.192009 0.000000 0.000000
										CHANNELS 3 Xrotation Yrotation Zrotation
										JOINT newVegas:LeftHandIndex3
										{
											OFFSET 3.835129 0.000000 0.000000
											CHANNELS 3 Xrotation Yrotation Zrotation
											End Site
											{
												OFFSET -0.034599 3.816971 0.371180
											}
										}
									}
								}
								JOINT newVegas:LeftHandMiddle1
								{
									OFFSET 18.476105 0.000000 0.000000
									CHANNELS 3 Xrotation Yrotation Zrotation
									JOINT newVegas:LeftHandMiddle2
									{
										OFFSET 3.324875 0.000000 0.000000
										CHANNELS 3 Xrotation Yrotation Zrotation
										JOINT newVegas:LeftHandMiddle3
										{
											OFFSET 4.596550 0.000000 0.000000
											CHANNELS 3 Xrotation Yrotation Zrotation
											End Site
											{
												OFFSET 0.057701 4.578827 0.399218
											}
										}
									}
								}
								JOINT newVegas:LeftHandRing1
								{
									OFFSET 17.732719 0.121887 -4.201567
									CHANNELS 3 Xrotation Yrotation Zrotation
									JOINT newVegas:LeftHandRing2
									{
										OFFSET 2.733170 0.000000 0.000000
										CHANNELS 3 Xrotation Yrotation Zrotation
										JOINT newVegas:LeftHandRing3
										{
											OFFSET 3.178268 0.000000 0.000000
											CHANNELS 3 Xrotation Yrotation Zrotation
											End Site
											{
												OFFSET 0.119102 3.170624 0.185394
											}
										}
									}
								}
								JOINT newVegas:LeftHandPinky1
								{
									OFFSET 15.989624 -0.606689 -7.535461
									CHANNELS 3 Xrotation Yrotation Zrotation
									JOINT newVegas:LeftHandPinky2
									{
										OFFSET 2.538986 0.000000 0.000000
										CHANNELS 3 Xrotation Yrotation Zrotation
										JOINT newVegas:LeftHandPinky3
										{
											OFFSET 2.593102 0.000000 0.000000
											CHANNELS 3 Xrotation Yrotation Zrotation
											End Site
											{
												OFFSET -0.150902 2.584198 0.152708
											}
										}
									}
								}
							}
							JOINT newVegas:Left_Sleeve
							{
								OFFSET 0.267448 -0.649796 0.577675
								CHANNELS 3 Xrotation Yrotation Zrotation
								End Site
								{
									OFFSET 0.000000 15.991241 0.000000
								}
							}
							JOINT newVegas:Left_CapeC
							{
								OFFSET 15.715958 -8.608795 -6.935905
								CHANNELS 3 Xrotation Yrotation Zrotation
								JOINT newVegas:Left_CapeC1
								{
									OFFSET 0.000000 -8.688499 0.000000
									CHANNELS 3 Xrotation Yrotation Zrotation
									End Site
									{
										OFFSET 0.000000 8.688499 0.000000
									}
								}
							}
						}
						JOINT newVegas:Left_CapeB
						{
							OFFSET 26.118385 -8.608795 -7.079235
							CHANNELS 3 Xrotation Yrotation Zrotation
							JOINT newVegas:Left_CapeB1
							{
								OFFSET 0.000000 -8.688499 0.000000
								CHANNELS 3 Xrotation Yrotation Zrotation
								End Site
								{
									OFFSET 0.000000 8.688499 0.000000
								}
							}
						}
						JOINT newVegas:Left_CapeA
						{
							OFFSET 5.115639 -8.608795 -10.395809
							CHANNELS 3 Xrotation Yrotation Zrotation
							JOINT newVegas:Left_CapeA1
							{
								OFFSET 0.000000 -8.688499 0.000000
								CHANNELS 3 Xrotation Yrotation Zrotation
								End Site
								{
									OFFSET 0.000000 8.688499 0.000000
								}
							}
						}
					}
				}
				JOINT newVegas:RightShoulder
				{
					OFFSET -15.263000 10.923401 -0.547700
					CHANNELS 3 Xrotation Yrotation Zrotation
					JOINT newVegas:RightArm
					{
						OFFSET -25.438599 -2.830597 -13.032500
						CHANNELS 3 Xrotation Yrotation Zrotation
						JOINT newVegas:RightForeArm
						{
							OFFSET -29.960503 0.000000 0.000000
							CHANNELS 3 Xrotation Yrotation Zrotation
							JOINT newVegas:RightHand
							{
								OFFSET -27.849251 0.000000 0.000000
								CHANNELS 3 Xrotation Yrotation Zrotation
								JOINT newVegas:RightHandThumb1
								{
									OFFSET -4.487587 -3.305161 6.305391
									CHANNELS 3 Xrotation Yrotation Zrotation
									JOINT newVegas:RightHandThumb2
									{
										OFFSET -5.480453 -3.164139 3.164143
										CHANNELS 3 Xrotation Yrotation Zrotation
										JOINT newVegas:RightHandThumb3
										{
											OFFSET -5.159721 -2.978973 2.978967
											CHANNELS 3 Xrotation Yrotation Zrotation
											End Site
											{
												OFFSET -2.494507 5.926697 1.738678
											}
										}
									}
								}
								JOINT newVegas:RightHandIndex1
								{
									OFFSET -18.578728 -0.527832 5.208049
									CHANNELS 3 Xrotation Yrotation Zrotation
									JOINT newVegas:RightHandIndex2
									{
										OFFSET -3.192009 0.000000 0.000000
										CHANNELS 3 Xrotation Yrotation Zrotation
										JOINT newVegas:RightHandIndex3
										{
											OFFSET -3.835129 0.000000 0.000000
											CHANNELS 3 Xrotation Yrotation Zrotation
											End Site
											{
												OFFSET 0.034599 3.816971 0.371180
											}
										}
									}
								}
								JOINT newVegas:RightHandMiddle1
								{
									OFFSET -18.476105 0.000000 0.000000
									CHANNELS 3 Xrotation Yrotation Zrotation
									JOINT newVegas:RightHandMiddle2
									{
										OFFSET -3.324875 0.000000 0.000000
										CHANNELS 3 Xrotation Yrotation Zrotation
										JOINT newVegas:RightHandMiddle3
										{
											OFFSET -4.596550 0.000000 0.000000
											CHANNELS 3 Xrotation Yrotation Zrotation
											End Site
											{
												OFFSET -0.057701 4.578827 0.399218
											}
										}
									}
								}
								JOINT newVegas:RightHandRing1
								{
									OFFSET -17.732719 0.121887 -4.201567
									CHANNELS 3 Xrotation Yrotation Zrotation
									JOINT newVegas:RightHandRing2
									{
										OFFSET -2.733170 0.000000 0.000000
										CHANNELS 3 Xrotation Yrotation Zrotation
										JOINT newVegas:RightHandRing3
										{
											OFFSET -3.178268 0.000000 0.000000
											CHANNELS 3 Xrotation Yrotation Zrotation
											End Site
											{
												OFFSET -0.119102 3.170624 0.185394
											}
										}
									}
								}
								JOINT newVegas:RightHandPinky1
								{
									OFFSET -15.989624 -0.606689 -7.535461
									CHANNELS 3 Xrotation Yrotation Zrotation
									JOINT newVegas:RightHandPinky2
									{
										OFFSET -2.538986 0.000000 0.000000
										CHANNELS 3 Xrotation Yrotation Zrotation
										JOINT newVegas:RightHandPinky3
										{
											OFFSET -2.593102 0.000000 0.000000
											CHANNELS 3 Xrotation Yrotation Zrotation
											End Site
											{
												OFFSET 0.150902 2.584198 0.152708
											}
										}
									}
								}
							}
							JOINT newVegas:Right_CapeC
							{
								OFFSET -15.715958 -8.608795 -6.935905
								CHANNELS 3 Xrotation Yrotation Zrotation
								JOINT newVegas:Right_CapeC1
								{
									OFFSET 0.000000 -8.688499 0.000000
									CHANNELS 3 Xrotation Yrotation Zrotation
									End Site
									{
										OFFSET 0.000000 8.688499 0.000000
									}
								}
							}
							JOINT newVegas:Right_Sleeve
							{
								OFFSET -0.267448 -0.649994 0.577675
								CHANNELS 3 Xrotation Yrotation Zrotation
								End Site
								{
									OFFSET 0.000000 15.991302 0.000000
								}
							}
						}
						JOINT newVegas:Right_CapeA
						{
							OFFSET -5.115540 -8.608795 -10.395824
							CHANNELS 3 Xrotation Yrotation Zrotation
							JOINT newVegas:Right_CapeA1
							{
								OFFSET 0.000000 -8.688499 0.000000
								CHANNELS 3 Xrotation Yrotation Zrotation
								End Site
								{
									OFFSET 0.000000 8.688499 0.000000
								}
							}
						}
						JOINT newVegas:Right_CapeB
						{
							OFFSET -26.118187 -8.608795 -7.079266
							CHANNELS 3 Xrotation Yrotation Zrotation
							JOINT newVegas:Right_CapeB1
							{
								OFFSET 0.000000 -8.688499 0.000000
								CHANNELS 3 Xrotation Yrotation Zrotation
								End Site
								{
									OFFSET 0.000000 8.688499 0.000000
								}
							}
						}
					}
				}
				JOINT newVegas:Left_Collar
				{
					OFFSET 18.625099 8.655502 8.828100
					CHANNELS 3 Xrotation Yrotation Zrotation
					JOINT newVegas:Left_Collar1
					{
						OFFSET 14.783401 10.540405 -1.259500
						CHANNELS 3 Xrotation Yrotation Zrotation
						End Site
						{
							OFFSET 0.000000 18.199875 0.000000
						}
					}
				}
				JOINT newVegas:Collar_Back
				{
					OFFSET 0.000000 15.630707 -20.132601
					CHANNELS 3 Xrotation Yrotation Zrotation
					End Site
					{
						OFFSET 0.000000 22.523010 0.000000
					}
				}
				JOINT newVegas:Left_Peck
				{
					OFFSET 17.239599 -5.132599 25.482599
					CHANNELS 3 Xrotation Yrotation Zrotation
					End Site
					{
						OFFSET 0.000000 22.523010 0.000000
					}
				}
				JOINT newVegas:Right_Peck
				{
					OFFSET -17.239599 -5.132202 25.482599
					CHANNELS 3 Xrotation Yrotation Zrotation
					End Site
					{
						OFFSET 0.000000 22.523010 0.000000
					}
				}
				JOINT newVegas:Right_Collar
				{
					OFFSET -18.625099 8.655792 8.828100
					CHANNELS 3 Xrotation Yrotation Zrotation
					JOINT newVegas:Right_Collar1
					{
						OFFSET -14.783401 10.539993 -1.259500
						CHANNELS 3 Xrotation Yrotation Zrotation
						End Site
						{
							OFFSET 0.000000 18.199631 0.000000
						}
					}
				}
			}
		}
		JOINT newVegas:Belly
		{
			OFFSET 0.000000 -6.540398 9.014299
			CHANNELS 3 Xrotation Yrotation Zrotation
			End Site
			{
				OFFSET 0.000000 11.566666 0.000000
			}
		}
	}
	JOINT newVegas:ElvisFacialAnim_Joint
	{
		OFFSET 1.000000 -95.330101 -8.825800
		CHANNELS 3 Xrotation Yrotation Zrotation
		End Site
		{
			OFFSET 0.000000 35.315800 0.000000
		}
	}
}
MOTION
Frames: 4
Frame Time: 0.016667
1.135540 112.259346 1.784424 -92.964803 0.977187 1.547468 -0.000000 0.000000 0.000000 -7.877716 15.912444 21.952993 13.362634 4.357343 1.392346 22.234248 29.568934 -33.219120 -0.000000 -0.000001 0.000001 0.000001 0.000002 0.000000 -10.822214 -14.372065 -17.761562 17.042328 -6.894022 -7.961882 32.929995 -29.016717 32.781937 0.000000 0.000001 0.000000 -0.000000 -0.000002 -0.000001 3.831046 1.365497 -0.545765 17.173686 2.320171 -1.615368 15.078696 2.910057 -1.904893 -0.158228 0.060289 -1.566915 -0.158204 0.060287 -1.566914 -0.000000 0.000000 0.000000 -0.158196 0.060290 -1.566917 -0.158195 0.060281 -1.566910 -0.000001 0.000001 -0.000000 -0.000000 0.000000 -0.000000 0.987239 5.865643 -0.070264 17.540348 -48.233635 -39.213448 -0.000013 -78.453001 -0.000000 -11.155046 -10.690896 -3.204748 6.590540 -4.958667 16.122658 7.178836 21.567331 2.147324 -0.000002 -0.000002 -0.000003 0.659511 4.932351 -26.024457 0.169790 1.401604 -13.813539 -0.000002 0.000000 0.000001 1.376922 6.461944 -24.994174 0.169871 1.401976 -13.817108 -0.000001 -0.000000 -0.000001 2.098726 8.644281 -21.209674 0.169788 1.401601 -13.813539 -0.000001 -0.000004 -0.000001 2.123421 10.735864 -14.817566 0.167495 1.392233 -13.719346 0.000001 -0.000001 -0.000002 0.000001 0.000002 0.000001 0.000001 0.000002 0.000001 -0.000000 0.000002 0.000002 -0.000002 0.000001 0.000001 -0.000002 0.000000 0.000001 -0.000002 0.000001 0.000001 -0.000003 0.000002 -0.000000 1.003567 3.077426 16.318586 -30.625308 39.526103 60.112536 -0.000010 122.611267 -0.000008 2.149661 2.949046 16.100989 -3.770199 1.684400 8.767248 7.918235 -27.751668 -3.100781 -0.000004 -0.000001 -0.000002 -0.371391 2.206047 53.128353 1.396288 -3.326841 45.526660 -0.000002 -0.000000 -0.000002 -1.457717 -4.435178 63.714662 1.929824 -3.776448 54.123095 -0.000002 0.000001 0.000001 0.113593 -5.549196 69.688051 2.144064 -3.922162 57.313251 -0.000001 0.000001 -0.000001 2.818450 -6.533444 66.047595 2.835549 -4.286832 66.951632 -0.000001 0.000005 0.000000 0.000002 -0.000000 0.000003 0.000002 -0.000000 0.000004 0.000002 -0.000000 0.000003 0.000001 0.000001 0.000001 0.000001 0.000002 0.000002 0.000001 0.000001 0.000001 0.000001 0.000001 0.000002 0.000002 0.000000 0.000000 0.000002 0.000000 0.000000 0.000002 0.000000 0.000000 0.000002 0.000000 0.000000 0.000002 0.000000 0.000000 0.000002 0.000000 0.000000 0.000002 0.000000 0.000000 0.000000 0.000000 -0.000000 -0.000000 0.000000 0.000000 
1.080843 112.225990 1.858154 -92.872917 0.828183 1.464192 0.000000 0.000000 0.000000 -8.128156 15.820526 22.021863 13.473964 4.427611 1.433270 22.735789 29.558388 -33.260832 0.000001 0.000000 -0.000000 0.000000 0.000001 0.000002 -11.040804 -14.348600 -17.653312 16.840350 -7.011267 -7.829751 33.330316 -28.800784 32.478765 0.000000 0.000002 0.000000 -0.000001 0.000003 -0.000000 3.764514 1.342833 -0.515615 16.775778 2.298675 -1.540694 14.708515 2.873933 -1.840032 -0.081774 0.060474 -1.515453 -0.081787 0.060469 -1.515459 0.000003 -0.000000 -0.000000 -0.081723 0.060483 -1.515472 -0.081796 0.060564 -1.515486 -0.000001 0.000000 -0.000001 0.000003 -0.000000 -0.000001 1.057895 5.646926 -0.072704 17.692932 -47.941125 -39.648849 -0.000030 -78.307108 -0.000032 -11.274808 -10.604949 -3.471090 6.590532 -4.958668 16.122653 7.178841 21.567328 2.147322 0.000003 0.000000 -0.000001 0.659517 4.932352 -26.024460 0.169794 1.401613 -13.813541 0.000001 0.000001 0.000001 1.376922 6.461943 -24.994184 0.169877 1.401971 -13.817113 -0.000001 0.000001 0.000000 2.098722 8.644285 -21.209682 0.169787 1.401606 -13.813535 0.000001 -0.000002 -0.000001 2.123424 10.735860 -14.817566 0.167496 1.392241 -13.719348 0.000001 -0.000002 -0.000001 -0.000001 -0.000001 0.000003 -0.000001 -0.000001 0.000003 -0.000002 -0.000001 0.000003 -0.000000 -0.000003 -0.000001 -0.000000 -0.000003 -0.000001 -0.000000 -0.000003 -0.000001 -0.000002 -0.000003 -0.000002 0.998587 3.039514 16.387538 -30.378359 39.942383 60.251865 -0.000031 121.965513 0.000027 1.852868 2.561968 15.661364 -3.770212 1.684409 8.767248 7.918232 -27.751672 -3.100783 -0.000002 -0.000002 -0.000001 -0.371396 2.206056 53.128353 1.396287 -3.326851 45.526653 0.000003 0.000001 0.000002 -1.457709 -4.435159 63.714662 1.929813 -3.776445 54.123078 0.000001 -0.000003 0.000001 0.113562 -5.549195 69.688044 2.144066 -3.922160 57.313272 -0.000001 0.000001 -0.000000 2.818454 -6.533434 66.047581 2.835531 -4.286835 66.951584 -0.000001 0.000003 -0.000000 -0.000000 0.000001 -0.000002 -0.000000 -0.000001 -0.000002 -0.000000 0.000001 -0.000003 -0.000001 0.000001 0.000000 -0.000001 0.000002 0.000001 -0.000001 0.000001 0.000000 -0.000001 0.000002 0.000001 0.000001 -0.000000 -0.000000 0.000001 -0.000000 -0.000000 0.000001 -0.000000 -0.000000 0.000001 -0.000000 -0.000000 0.000001 -0.000000 -0.000000 0.000001 -0.000000 -0.000000 0.000001 -0.000000 -0.000000 -0.000000 0.000000 -0.000000 0.000000 0.000000 0.000000 
1.036418 112.196686 1.967606 -92.661761 0.743811 1.379598 0.000000 -0.000000 0.000000 -8.456528 15.691603 22.114582 13.506437 4.504856 1.424271 23.451810 29.545165 -33.315566 0.000000 0.000001 0.000000 0.000000 -0.000003 0.000002 -11.329279 -14.305686 -17.591337 16.462069 -7.134102 -7.632272 34.120343 -28.576402 32.208331 -0.000001 -0.000000 -0.000001 0.000000 -0.000001 0.000000 3.668284 1.290091 -0.489663 16.309073 2.217898 -1.457731 14.304890 2.791179 -1.752529 -0.008611 0.061681 -1.473441 -0.008590 0.061680 -1.473443 -0.000000 0.000000 -0.000001 -0.008575 0.061680 -1.473439 -0.008664 0.061676 -1.473440 -0.000000 -0.000001 0.000001 -0.000000 0.000000 -0.000000 1.036058 5.431824 -0.068785 17.978660 -47.538967 -40.193788 0.000043 -78.189444 0.000069 -11.401803 -10.483632 -3.731924 6.590536 -4.958668 16.122656 7.178839 21.567328 2.147328 0.000002 0.000001 -0.000003 0.659517 4.932352 -26.024457 0.169793 1.401609 -13.813537 -0.000001 0.000002 -0.000000 1.376922 6.461945 -24.994176 0.169873 1.401970 -13.817111 -0.000001 0.000001 -0.000000 2.098726 8.644281 -21.209675 0.169787 1.401606 -13.813538 -0.000003 -0.000001 -0.000000 2.123425 10.735864 -14.817566 0.167500 1.392236 -13.719348 -0.000002 -0.000003 0.000000 0.000001 -0.000001 0.000000 0.000001 -0.000001 0.000000 0.000000 -0.000001 0.000001 -0.000002 -0.000002 -0.000001 -0.000002 -0.000003 -0.000001 -0.000002 -0.000002 -0.000001 -0.000003 -0.000001 -0.000002 1.002754 3.007375 16.447017 -30.000711 40.337670 60.294280 0.000057 121.436720 -0.000056 1.901621 2.536345 15.603096 -3.770194 1.684412 8.767246 7.918236 -27.751668 -3.100783 -0.000005 -0.000003 -0.000003 -0.371390 2.206054 53.128346 1.396291 -3.326843 45.526646 0.000003 0.000002 0.000003 -1.457714 -4.435165 63.714662 1.929826 -3.776451 54.123082 0.000001 0.000004 0.000000 0.113483 -5.549157 69.688044 2.144066 -3.922164 57.313272 -0.000001 0.000001 0.000000 2.818452 -6.533435 66.047595 2.835532 -4.286830 66.951618 -0.000000 0.000002 0.000001 -0.000000 0.000004 0.000003 -0.000000 -0.000001 0.000003 -0.000000 0.000004 0.000002 -0.000001 -0.000001 0.000002 -0.000001 0.000000 0.000002 -0.000001 -0.000001 0.000002 -0.000001 0.000000 0.000002 0.000001 0.000000 -0.000000 0.000001 0.000000 -0.000000 0.000001 0.000000 -0.000000 0.000001 0.000000 -0.000000 0.000001 0.000000 -0.000000 0.000001 0.000000 -0.000000 0.000001 0.000000 -0.000000 -0.000000 -0.000000 0.000000 0.000000 -0.000000 0.000000 
1.000252 112.174278 2.095695 -92.243119 0.750458 1.275272 -0.000000 0.000000 -0.000000 -9.008167 15.496489 22.227392 13.646810 4.690784 1.352402 24.333988 29.515836 -33.357664 0.000001 -0.000000 -0.000000 0.000001 -0.000001 -0.000000 -11.837146 -14.221757 -17.356503 15.994848 -6.822972 -7.696860 35.666316 -28.759768 32.353189 0.000001 -0.000002 0.000000 -0.000000 -0.000002 -0.000001 3.564744 1.186580 -0.461219 15.819685 2.050239 -1.351606 13.873243 2.617391 -1.626179 0.006427 0.060188 -1.434457 0.006424 0.060188 -1.434457 -0.000002 0.000000 -0.000000 0.006439 0.060185 -1.434454 0.006476 0.060199 -1.434461 -0.000000 0.000000 -0.000000 -0.000002 0.000000 0.000000 1.007911 5.213136 -0.072448 18.126089 -46.854766 -41.156551 0.000180 -78.131511 0.000189 -11.365483 -10.354306 -4.045960 6.590534 -4.958674 16.122655 7.178843 21.567326 2.147327 0.000001 0.000000 -0.000003 0.659513 4.932348 -26.024457 0.169791 1.401610 -13.813541 -0.000001 0.000001 0.000001 1.376921 6.461940 -24.994174 0.169874 1.401972 -13.817113 -0.000001 0.000005 0.000002 2.098722 8.644278 -21.209675 0.169788 1.401604 -13.813539 0.000001 -0.000002 -0.000001 2.123426 10.735859 -14.817566 0.167498 1.392241 -13.719347 -0.000001 -0.000000 0.000001 -0.000001 -0.000004 0.000002 -0.000001 -0.000004 0.000002 -0.000002 -0.000004 0.000003 -0.000001 0.000001 -0.000000 -0.000001 0.000000 -0.000000 -0.000001 0.000001 -0.000000 -0.000003 0.000000 -0.000001 0.964778 2.960575 16.488488 -29.252129 40.564886 59.893123 -0.000005 121.381436 -0.000003 2.367297 2.832857 15.788923 -3.770200 1.684411 8.767250 7.918236 -27.751665 -3.100782 -0.000002 0.000000 -0.000004 -0.371393 2.206056 53.128353 1.396297 -3.326840 45.526657 -0.000001 0.000001 0.000004 -1.457725 -4.435169 63.714655 1.929837 -3.776442 54.123075 0.000001 0.000001 -0.000001 0.113323 -5.549104 69.688031 2.144060 -3.922163 57.313258 -0.000001 0.000002 -0.000000 2.818443 -6.533436 66.047588 2.835543 -4.286843 66.951625 -0.000000 0.000005 0.000001 -0.000001 -0.000003 0.000002 -0.000002 -0.000003 0.000003 -0.000001 -0.000003 -0.000000 -0.000003 -0.000001 0.000001 -0.000003 0.000000 0.000002 -0.000003 -0.000001 0.000001 -0.000003 0.000000 0.000002 -0.000000 -0.000000 0.000000 -0.000000 -0.000000 0.000000 -0.000000 -0.000000 0.000000 -0.000000 -0.000000 0.000000 -0.000000 -0.000000 0.000000 -0.000000 -0.000000 0.000000 -0.000000 -0.000000 0.000000 -0.000000 -0.000000 0.000000 -0.000000 0.000000 -0.000000 
